<?xml version="1.0" standalone="no"?>
<!DOCTYPE svg PUBLIC "-//W3C//DTD SVG 20010904//EN"
 "http://www.w3.org/TR/2001/REC-SVG-20010904/DTD/svg10.dtd">
<svg version="1.0" xmlns="http://www.w3.org/2000/svg"
 width="234.000000pt" height="155.000000pt" viewBox="0 0 234.000000 155.000000"
 preserveAspectRatio="xMidYMid meet">

<g transform="translate(0.000000,155.000000) scale(0.100000,-0.100000)"
fill="#FFFFFF" stroke="none">
<path d="M827 1331 l-148 -86 -74 -128 c-41 -71 -75 -133 -75 -138 0 -5 20 -9
45 -9 l44 0 63 107 64 108 134 77 135 78 145 0 145 0 135 -77 135 -78 63 -107
63 -108 45 0 c24 0 44 4 44 9 0 6 -33 67 -74 138 l-75 128 -151 88 -152 87
-182 -1 -181 -1 -148 -87z"/>
<path d="M922 1184 c-107 -63 -114 -69 -152 -134 -22 -38 -40 -71 -40 -74 0
-3 20 -6 45 -6 43 0 47 2 72 43 20 35 45 54 118 95 l92 52 102 0 103 0 93 -52
c73 -42 99 -62 119 -95 24 -40 28 -43 71 -43 25 0 45 3 45 6 0 3 -18 36 -40
74 -38 66 -45 71 -153 134 l-114 66 -124 0 -124 0 -113 -66z"/>
<path d="M202 927 c-7 -7 -12 -69 -13 -146 -1 -110 1 -135 14 -149 13 -12 21
-13 40 -5 20 9 28 8 43 -5 18 -16 18 -16 1 4 -11 13 -17 38 -17 67 0 26 -4 47
-10 47 -5 0 -10 -15 -10 -32 0 -39 -13 -63 -29 -54 -7 5 -11 51 -11 132 0 114
2 125 18 122 11 -2 18 -14 20 -36 5 -45 22 -40 22 6 0 55 -40 83 -68 49z"/>
<path d="M376 908 c-3 -18 -8 -64 -11 -103 -3 -38 -8 -94 -11 -122 -5 -45 -4
-53 10 -53 12 0 16 9 16 35 0 28 4 35 20 35 16 0 20 -7 20 -35 0 -24 5 -35 15
-35 12 0 14 13 8 78 -6 75 -6 77 13 62 14 -10 13 -8 -3 11 -18 19 -23 37 -23
78 0 45 2 52 14 42 12 -10 14 -9 12 6 -2 10 -10 17 -20 15 -9 -2 -16 2 -16 8
0 5 -9 10 -20 10 -14 0 -20 -9 -24 -32z m36 -126 c2 -42 0 -52 -13 -52 -13 0
-15 10 -12 58 8 107 19 105 25 -6z"/>
<path d="M535 920 c-24 -26 -15 -89 19 -139 19 -27 26 -50 26 -85 0 -60 -24
-59 -28 2 -2 29 -8 42 -18 42 -22 0 -19 -82 4 -103 23 -21 36 -21 56 -1 26 26
20 94 -14 157 -33 62 -40 117 -15 117 10 0 15 -11 15 -35 0 -24 5 -35 15 -35
21 0 20 64 -1 84 -21 21 -37 20 -59 -4z"/>
<path d="M709 913 c0 -16 -6 -85 -13 -155 -9 -104 -9 -128 1 -128 8 0 13 12
13 30 0 19 6 33 16 37 19 7 34 -13 34 -44 0 -13 5 -23 11 -23 12 0 10 50 -7
243 -6 62 -8 67 -30 67 -19 0 -24 -5 -25 -27z m36 -105 c6 -68 5 -78 -9 -78
-9 0 -16 8 -16 19 0 27 13 142 15 139 2 -2 6 -38 10 -80z"/>
<path d="M970 785 l0 -155 35 0 c24 0 37 6 45 19 5 11 10 74 10 140 0 133 -7
151 -61 151 l-29 0 0 -155z m55 -5 c0 -111 -2 -125 -17 -128 -16 -3 -18 8 -18
128 0 120 2 131 18 128 15 -3 17 -17 17 -128z"/>
<path d="M1009 888 c-6 -20 -5 -38 1 -48 5 -7 7 0 6 19 -1 26 -4 39 -7 29z"/>
<path d="M1005 811 c-3 -5 -2 -12 3 -15 5 -3 9 1 9 9 0 17 -3 19 -12 6z"/>
<path d="M1006 742 c-2 -4 -1 -14 4 -22 7 -11 9 -9 7 8 -1 24 -3 26 -11 14z"/>
<path d="M1140 785 c0 -131 2 -155 15 -155 13 0 15 24 15 155 0 131 -2 155
-15 155 -13 0 -15 -24 -15 -155z"/>
<path d="M1360 785 c0 -97 4 -155 10 -155 6 0 10 30 10 70 0 61 2 70 18 70 31
0 42 22 42 87 0 66 -12 83 -59 83 -20 0 -21 -5 -21 -155z m45 115 c-3 -5 -1
-10 4 -10 12 0 15 -48 5 -74 -3 -9 -12 -16 -20 -16 -10 0 -14 15 -14 55 0 43
3 55 16 55 8 0 12 -4 9 -10z"/>
<path d="M1394 846 c1 -8 5 -18 8 -22 4 -3 5 1 4 10 -1 8 -5 18 -8 22 -4 3 -5
-1 -4 -10z"/>
<path d="M1536 908 c-3 -18 -8 -64 -11 -103 -3 -38 -8 -94 -11 -122 -5 -45 -4
-53 10 -53 12 0 16 9 16 35 0 28 4 35 20 35 16 0 20 -7 20 -35 0 -26 4 -35 16
-35 13 0 15 8 10 43 -14 105 -18 234 -7 241 7 4 9 2 5 -7 -3 -8 -1 -18 5 -22
7 -4 10 2 7 17 -2 15 -9 22 -20 20 -9 -2 -16 2 -16 8 0 5 -9 10 -20 10 -14 0
-20 -9 -24 -32z m36 -115 c4 -53 2 -63 -12 -63 -14 0 -16 9 -13 58 8 106 19
108 25 5z"/>
<path d="M1695 920 c-24 -26 -15 -89 19 -139 19 -27 26 -50 26 -85 0 -60 -24
-59 -28 2 -2 29 -8 42 -18 42 -10 0 -14 -12 -14 -43 0 -51 26 -83 59 -72 42
13 40 110 -3 176 -30 44 -36 109 -11 109 10 0 15 -11 15 -35 0 -24 5 -35 15
-35 24 0 20 76 -4 90 -27 14 -35 13 -56 -10z"/>
<path d="M1840 925 c0 -8 7 -15 15 -15 13 0 15 -22 15 -140 0 -118 2 -140 15
-140 13 0 15 22 15 139 l0 139 25 5 c17 3 24 0 22 -7 -3 -6 -10 -10 -16 -8 -7
1 -10 -2 -7 -7 8 -12 39 -7 43 6 7 19 -40 43 -84 43 -32 0 -43 -4 -43 -15z"/>
<path d="M2026 908 c-3 -18 -8 -64 -11 -103 -3 -38 -8 -94 -11 -122 -5 -45 -4
-53 10 -53 12 0 16 9 16 35 0 28 4 35 20 35 16 0 20 -7 20 -35 0 -26 4 -35 16
-35 13 0 15 8 10 43 -14 105 -18 234 -7 241 7 4 9 2 5 -7 -3 -8 -1 -18 5 -22
7 -4 10 2 8 17 -2 13 -9 23 -15 23 -6 0 -14 3 -18 8 -19 19 -43 6 -48 -25z
m37 -115 c3 -52 1 -63 -12 -63 -13 0 -15 10 -13 52 3 60 14 111 18 88 2 -8 5
-43 7 -77z"/>
<path d="M776 893 c3 -43 3 -43 13 -43 8 0 8 28 1 38 -2 1 -3 6 -4 11 -3 24
-13 18 -10 -6z"/>
<path d="M1184 896 c1 -8 5 -18 8 -22 4 -3 5 1 4 10 -1 8 -5 18 -8 22 -4 3 -5
-1 -4 -10z"/>
<path d="M224 851 c1 -27 4 -52 7 -55 3 -3 5 16 5 43 -1 27 -4 52 -7 55 -3 3
-5 -16 -5 -43z"/>
<path d="M1454 870 c1 -17 7 -35 13 -41 9 -9 11 -7 9 4 -1 9 -5 19 -8 23 -4 3
-4 12 -2 19 3 7 1 16 -5 19 -5 4 -9 -6 -7 -24z"/>
<path d="M1845 890 c3 -5 8 -10 11 -10 2 0 4 5 4 10 0 6 -5 10 -11 10 -5 0 -7
-4 -4 -10z"/>
<path d="M284 876 c1 -9 7 -21 13 -27 9 -9 11 -7 9 5 -1 9 -7 21 -13 27 -9 9
-11 7 -9 -5z"/>
<path d="M444 851 c1 -16 4 -32 8 -36 4 -4 6 7 4 24 -3 40 -12 49 -12 12z"/>
<path d="M1074 866 c1 -8 5 -18 8 -22 4 -3 5 1 4 10 -1 8 -5 18 -8 22 -4 3 -5
-1 -4 -10z"/>
<path d="M1914 851 c1 -16 4 -32 8 -36 4 -4 6 7 4 24 -3 40 -12 49 -12 12z"/>
<path d="M1184 811 c1 -27 4 -52 7 -55 3 -3 5 16 5 43 -1 27 -4 52 -7 55 -3 3
-5 -16 -5 -43z"/>
<path d="M1603 840 c-1 -11 2 -22 8 -25 5 -4 8 3 6 14 -4 28 -12 34 -14 11z"/>
<path d="M275 830 c-4 -6 -11 -7 -17 -4 -6 4 -8 2 -5 -4 7 -10 32 -11 42 0 4
3 2 9 -4 12 -5 4 -12 2 -16 -4z"/>
<path d="M615 830 c-4 -6 -11 -7 -17 -4 -6 4 -8 2 -5 -4 9 -13 40 -9 45 6 5
15 -14 16 -23 2z"/>
<path d="M1775 830 c-4 -6 -11 -7 -17 -4 -6 4 -8 2 -5 -4 7 -10 32 -11 42 0 4
3 2 9 -4 12 -5 4 -12 2 -16 -4z"/>
<path d="M1074 801 c1 -16 4 -32 8 -36 4 -4 6 7 4 24 -3 40 -12 49 -12 12z"/>
<path d="M784 780 c1 -22 7 -45 13 -51 9 -9 11 -7 8 7 -2 11 -4 19 -5 19 -1 0
-3 12 -4 27 -2 43 -13 42 -12 -2z"/>
<path d="M1455 813 c3 -3 0 -12 -6 -19 -11 -13 -5 -34 10 -34 10 0 8 47 -2 55
-4 3 -5 2 -2 -2z"/>
<path d="M1614 786 c1 -8 5 -18 8 -22 4 -3 5 1 4 10 -1 8 -5 18 -8 22 -4 3 -5
-1 -4 -10z"/>
<path d="M2104 786 c1 -8 5 -18 8 -22 4 -3 5 1 4 10 -1 8 -5 18 -8 22 -4 3 -5
-1 -4 -10z"/>
<path d="M1914 731 c1 -16 4 -32 8 -36 4 -4 6 7 4 24 -3 40 -12 49 -12 12z"/>
<path d="M224 739 c-3 -6 -1 -16 4 -21 8 -8 11 -5 9 11 -1 24 -3 25 -13 10z"/>
<path d="M454 721 c1 -16 4 -32 8 -36 4 -4 6 7 4 24 -3 40 -12 49 -12 12z"/>
<path d="M1405 743 c3 -3 0 -12 -5 -18 -7 -9 -6 -16 3 -24 11 -9 14 -6 13 14
-1 13 -5 27 -9 30 -4 3 -5 2 -2 -2z"/>
<path d="M1615 720 c1 -17 5 -33 8 -36 3 -3 5 8 3 25 -1 17 -5 33 -8 36 -3 3
-4 -8 -3 -25z"/>
<path d="M2106 722 c1 -15 2 -30 3 -34 1 -5 6 -8 12 -8 8 0 8 4 2 13 -6 6 -9
20 -8 29 2 10 0 20 -4 23 -4 2 -7 -8 -5 -23z"/>
<path d="M1184 711 c1 -16 4 -32 8 -36 4 -4 6 7 4 24 -3 40 -12 49 -12 12z"/>
<path d="M620 721 c0 -5 5 -13 10 -16 6 -3 10 -2 10 4 0 5 -4 13 -10 16 -5 3
-10 2 -10 -4z"/>
<path d="M1784 701 c3 -40 12 -49 12 -12 -1 16 -4 32 -8 36 -4 4 -6 -7 -4 -24z"/>
<path d="M793 695 c0 -8 4 -12 9 -9 5 3 6 10 3 15 -9 13 -12 11 -12 -6z"/>
<path d="M1074 681 c1 -16 4 -32 8 -36 4 -4 6 7 4 24 -3 40 -12 49 -12 12z"/>
<path d="M394 665 c2 -35 11 -39 12 -4 1 16 -2 29 -6 29 -4 0 -6 -11 -6 -25z"/>
<path d="M720 686 c0 -2 8 -10 18 -17 15 -13 16 -12 3 4 -13 16 -21 21 -21 13z"/>
<path d="M1554 661 c1 -16 4 -32 8 -36 4 -4 6 7 4 24 -3 40 -12 49 -12 12z"/>
<path d="M2044 661 c1 -16 4 -32 8 -36 4 -4 6 7 4 24 -3 40 -12 49 -12 12z"/>
<path d="M283 666 c5 -15 24 -18 24 -3 0 8 -6 14 -14 14 -7 0 -12 -5 -10 -11z"/>
<path d="M790 661 c0 -5 5 -13 10 -16 6 -3 10 -2 10 4 0 5 -4 13 -10 16 -5 3
-10 2 -10 -4z"/>
<path d="M1394 643 c1 -20 -3 -27 -14 -25 -12 3 -12 1 -3 -9 23 -24 40 -18 39
12 -1 15 -6 33 -12 39 -8 8 -11 4 -10 -17z"/>
<path d="M1914 642 c0 -18 -4 -26 -14 -24 -11 3 -11 0 0 -13 7 -8 16 -13 19
-10 9 9 9 65 1 70 -4 2 -7 -8 -6 -23z"/>
<path d="M724 643 c2 -10 -1 -21 -6 -24 -5 -3 -2 -11 6 -18 12 -10 14 -8 12
18 -1 17 -5 33 -8 37 -4 3 -5 -2 -4 -13z"/>
<path d="M2115 651 c-3 -5 -2 -12 3 -15 5 -3 9 1 9 9 0 17 -3 19 -12 6z"/>
<path d="M461 643 c4 -23 -3 -31 -22 -28 -17 3 -19 1 -9 -9 16 -21 43 -13 45
13 1 12 -2 24 -7 27 -5 3 -8 2 -7 -3z"/>
<path d="M610 635 c-13 -16 -4 -38 13 -32 13 4 18 35 7 42 -4 3 -13 -2 -20
-10z m17 -10 c0 -8 -4 -12 -9 -9 -5 3 -6 10 -3 15 9 13 12 11 12 -6z"/>
<path d="M1181 643 c4 -23 -3 -31 -22 -28 -17 3 -19 1 -9 -9 16 -21 43 -13 45
13 1 12 -2 24 -7 27 -5 3 -8 2 -7 -3z"/>
<path d="M1770 635 c-13 -16 -4 -38 13 -32 13 4 18 35 7 42 -4 3 -13 -2 -20
-10z m17 -10 c0 -8 -4 -12 -9 -9 -5 3 -6 10 -3 15 9 13 12 11 12 -6z"/>
<path d="M255 610 c-4 -6 -11 -7 -17 -4 -6 4 -8 2 -5 -4 7 -10 32 -11 42 0 4
3 2 9 -4 12 -5 4 -12 2 -16 -4z"/>
<path d="M360 604 c12 -13 41 -13 40 1 0 5 -11 10 -25 11 -19 1 -22 -2 -15
-12z"/>
<path d="M790 616 c0 -2 8 -10 18 -17 15 -13 16 -12 3 4 -13 16 -21 21 -21 13z"/>
<path d="M1010 604 c12 -13 41 -13 40 1 0 5 -11 10 -25 11 -19 1 -22 -2 -15
-12z"/>
<path d="M1519 607 c6 -6 18 -12 27 -13 12 -2 14 0 5 9 -6 6 -18 12 -27 13
-12 2 -14 0 -5 -9z"/>
<path d="M1590 604 c12 -13 41 -13 40 1 0 5 -11 10 -25 11 -19 1 -22 -2 -15
-12z"/>
<path d="M2020 616 c0 -2 8 -10 18 -17 15 -13 16 -12 3 4 -13 16 -21 21 -21
13z"/>
<path d="M2080 604 c12 -13 41 -13 40 1 0 5 -11 10 -25 11 -19 1 -22 -2 -15
-12z"/>
<path d="M530 551 c0 -5 33 -67 74 -137 l75 -128 153 -88 153 -88 176 0 177 0
152 88 151 88 75 128 c40 70 74 132 74 137 0 5 -20 9 -45 9 l-44 0 -63 -107
-64 -108 -134 -77 -135 -78 -145 0 -145 0 -135 78 -135 78 -61 105 -60 104
-47 3 c-26 2 -47 -1 -47 -7z"/>
<path d="M730 553 c0 -5 19 -40 43 -77 40 -65 48 -72 152 -132 l110 -64 124 0
124 0 114 66 c108 62 115 69 153 133 22 37 40 71 40 75 0 4 -21 6 -47 4 -44
-3 -49 -6 -69 -42 -17 -31 -43 -51 -116 -93 l-93 -53 -105 0 -105 0 -93 53
c-73 42 -99 62 -116 93 -20 36 -25 39 -69 42 -26 2 -47 -1 -47 -5z"/>
</g>
</svg>
